<?xml version="1.0" ?><svg enable-background="new 0 0 64 64" id="Layer_1" version="1.1" viewBox="0 0 64 64" xml:space="preserve" xmlns="http://www.w3.org/2000/svg" xmlns:xlink="http://www.w3.org/1999/xlink"><g><g><path d="M35.13,32.48c-0.593-0.849-1.762-1.057-2.611-0.463L27.675,35.4l-6.817-9.758    c-0.395-0.566-1.175-0.704-1.741-0.309l-3.074,2.148c-0.566,0.396-0.704,1.175-0.309,1.74l6.817,9.758l-4.712,3.291    c-0.849,0.593-1.057,1.762-0.463,2.611l2.447,3.504l17.764-12.409C36.113,33.973,35.13,32.48,35.13,32.48z" fill="#3E4753"/><path d="M48.002,46.191c-2.766-0.658-6.909-5.557-9.743-9.313L20.468,49.307l4.705,6.736    c1.648,2.36,4.604,3.654,8.116,3.354c-1.708-1.897-3.097-3.875-3.196-4.016c-0.228-0.327-0.148-0.777,0.178-1.004    c0.327-0.228,0.777-0.148,1.004,0.178c0.678,0.97,2.188,2.963,3.734,4.575c1.693-0.38,3.478-1.117,5.282-2.264l0,0    c-2.619-1.66-4.411-4.753-4.506-4.919c-0.198-0.346-0.077-0.787,0.268-0.984c0.346-0.198,0.786-0.077,0.984,0.268    c0.023,0.04,2.002,3.45,4.587,4.74c1.88-1.333,3.249-2.63,4.245-3.82c-4.233-0.803-6.346-3.755-6.452-3.906    c-0.228-0.327-0.148-0.776,0.178-1.004c0.326-0.227,0.775-0.149,1.003,0.177c0.017,0.024,0.713,0.989,2.066,1.89    c1.273,0.848,2.677,1.358,4.19,1.532c1.183-1.775,1.53-3.197,1.629-3.96C48.527,46.559,48.315,46.266,48.002,46.191z" fill="#2F7BBB"/></g><path d="M51.705,51.993h9.286c1.202,0,2.176-0.974,2.176-2.176V6.736c0-1.202-0.974-2.176-2.176-2.176H3.009   c-1.202,0-2.176,0.974-2.176,2.176v43.081c0,1.202,0.974,2.176,2.176,2.176h14l-2.358-3.376l-0.273-0.391H4.384V13.803h55.23   v34.423h-6.926l-1.369,3.767H51.705z M6.353,11.34c-1.193,0-2.159-0.967-2.159-2.157c0-1.193,0.967-2.159,2.159-2.159   c1.19,0,2.157,0.967,2.157,2.159C8.51,10.373,7.544,11.34,6.353,11.34z M12.212,11.34c-1.193,0-2.157-0.967-2.157-2.157   c0-1.193,0.964-2.159,2.157-2.159s2.157,0.967,2.157,2.159C14.369,10.373,13.404,11.34,12.212,11.34z M18.07,11.34   c-1.19,0-2.157-0.967-2.157-2.157c0-1.193,0.967-2.159,2.157-2.159c1.193,0,2.159,0.967,2.159,2.159   C20.229,10.373,19.263,11.34,18.07,11.34z M57.455,11.34h-25.97c-1.192,0-2.158-0.966-2.158-2.158s0.966-2.158,2.158-2.158h25.97   c1.192,0,2.158,0.966,2.158,2.158S58.647,11.34,57.455,11.34z" fill="#3E4753"/></g></svg>